<svg width="50" height="50" viewBox="0 0 50 50" fill="none" xmlns="http://www.w3.org/2000/svg">
<g clip-path="url(#clip0_882_1244)">
<path d="M1.08944 0C0.643856 0 0.249198 0.267365 0.0794529 0.674779C-0.0860493 1.08644 0.0115546 1.55327 0.329828 1.86307L48.1302 49.6663C48.4018 49.9507 48.8092 50.0653 49.1868 49.9634C49.5688 49.8658 49.8658 49.5687 49.9634 49.1868C50.0653 48.8091 49.9507 48.4017 49.6664 48.1301L23.5977 22.0598C26.8865 18.792 29.0677 17.1072 29.9759 16.4791C31.0835 17.1156 33.4642 18.4779 34.2323 18.8938C35.5138 19.6662 36.9567 19.7808 38.0091 19.1782C38.9894 18.5925 47.0183 13.3343 47.7779 12.7614C48.9449 11.9296 49.4117 9.9095 48.1217 8.11009C48.0708 8.03794 43.0802 1.09493 40.237 1.09493C40.2073 1.09493 40.1776 1.09917 40.1521 1.09917L40.0376 1.10341C33.6466 1.42171 25.7747 6.14092 16.6424 15.104L1.86602 0.32678C1.66233 0.114584 1.38225 0 1.08944 0ZM13.6209 18.1851C5.6174 26.6644 1.40347 34.0106 1.10641 40.0412L1.09793 40.2067C1.09793 42.9907 8.04476 48.0749 8.11266 48.1258C8.96988 48.7412 9.78041 48.8982 10.3873 48.8982C10.5188 48.8982 10.6376 48.8897 10.7522 48.877C11.5967 48.7879 12.3308 48.3889 12.7637 47.7778C13.2475 47.1073 18.6029 38.9717 19.1546 38.0508C19.7742 37.1214 19.6851 35.67 18.9212 34.2652C18.4884 33.4759 17.1304 31.0993 16.4896 29.9874C17.0413 29.215 18.2931 27.5853 20.5762 25.1409L13.6209 18.1851Z" fill="#9D89F7"/>
</g>
<defs>
<clipPath id="clip0_882_1244">
<rect width="50" height="50" fill="white"/>
</clipPath>
</defs>
</svg>