<svg width="50" height="50" viewBox="0 0 50 50" fill="none" xmlns="http://www.w3.org/2000/svg">
<g clip-path="url(#clip0_938_1056)">
<path d="M25 0C24.7237 0 24.4588 0.109747 24.2634 0.305097C24.0681 0.500447 23.9583 0.765399 23.9583 1.04167C23.9583 1.31793 24.0681 1.58289 24.2634 1.77824C24.4588 1.97359 24.7237 2.08333 25 2.08333C25.2763 2.08333 25.5412 1.97359 25.7366 1.77824C25.9319 1.58289 26.0417 1.31793 26.0417 1.04167C26.0417 0.765399 25.9319 0.500447 25.7366 0.305097C25.5412 0.109747 25.2763 0 25 0ZM18.7988 0.815837C18.5226 0.815837 18.2576 0.925583 18.0623 1.12093C17.8669 1.31628 17.7572 1.58124 17.7572 1.8575C17.7572 2.13377 17.8669 2.39872 18.0623 2.59407C18.2576 2.78942 18.5226 2.89917 18.7988 2.89917C19.0751 2.89917 19.34 2.78942 19.5354 2.59407C19.7307 2.39872 19.8405 2.13377 19.8405 1.8575C19.8405 1.58124 19.7307 1.31628 19.5354 1.12093C19.34 0.925583 19.0751 0.815837 18.7988 0.815837ZM31.2012 0.815837C30.9249 0.815837 30.66 0.925583 30.4646 1.12093C30.2692 1.31628 30.1595 1.58124 30.1595 1.8575C30.1595 2.13377 30.2692 2.39872 30.4646 2.59407C30.66 2.78942 30.9249 2.89917 31.2012 2.89917C31.4774 2.89917 31.7424 2.78942 31.9377 2.59407C32.1331 2.39872 32.2428 2.13377 32.2428 1.8575C32.2428 1.58124 32.1331 1.31628 31.9377 1.12093C31.7424 0.925583 31.4774 0.815837 31.2012 0.815837ZM13.0208 3.20841C12.7446 3.20841 12.4796 3.31816 12.2843 3.51351C12.0889 3.70886 11.9792 3.97381 11.9792 4.25008C11.9792 4.52635 12.0889 4.7913 12.2843 4.98665C12.4796 5.182 12.7446 5.29175 13.0208 5.29175C13.2971 5.29175 13.5621 5.182 13.7574 4.98665C13.9528 4.7913 14.0625 4.52635 14.0625 4.25008C14.0625 3.97381 13.9528 3.70886 13.7574 3.51351C13.5621 3.31816 13.2971 3.20841 13.0208 3.20841ZM36.9792 3.20841C36.7029 3.20841 36.4379 3.31816 36.2426 3.51351C36.0472 3.70886 35.9375 3.97381 35.9375 4.25008C35.9375 4.52635 36.0472 4.7913 36.2426 4.98665C36.4379 5.182 36.7029 5.29175 36.9792 5.29175C37.2554 5.29175 37.5204 5.182 37.7157 4.98665C37.9111 4.7913 38.0208 4.52635 38.0208 4.25008C38.0208 3.97381 37.9111 3.70886 37.7157 3.51351C37.5204 3.31816 37.2554 3.20841 36.9792 3.20841ZM25 4.16667C13.5064 4.16667 4.16667 13.5064 4.16667 25C4.16667 36.4936 13.5064 45.8333 25 45.8333C36.4936 45.8333 45.8333 36.4936 45.8333 25C45.8333 13.5064 36.4936 4.16667 25 4.16667ZM8.05867 7.01701C7.78241 7.01701 7.51746 7.12676 7.32211 7.32211C7.12676 7.51746 7.01701 7.78241 7.01701 8.05867C7.01701 8.33494 7.12676 8.59989 7.32211 8.79524C7.51746 8.99059 7.78241 9.10034 8.05867 9.10034C8.33494 9.10034 8.59989 8.99059 8.79524 8.79524C8.99059 8.59989 9.10034 8.33494 9.10034 8.05867C9.10034 7.78241 8.99059 7.51746 8.79524 7.32211C8.59989 7.12676 8.33494 7.01701 8.05867 7.01701ZM41.9413 7.01701C41.6651 7.01701 41.4001 7.12676 41.2048 7.32211C41.0094 7.51746 40.8997 7.78241 40.8997 8.05867C40.8997 8.33494 41.0094 8.59989 41.2048 8.79524C41.4001 8.99059 41.6651 9.10034 41.9413 9.10034C42.2176 9.10034 42.4825 8.99059 42.6779 8.79524C42.8732 8.59989 42.983 8.33494 42.983 8.05867C42.983 7.78241 42.8732 7.51746 42.6779 7.32211C42.4825 7.12676 42.2176 7.01701 41.9413 7.01701ZM19.3766 7.10856C18.4312 8.99605 17.7083 11.4456 17.7083 12.1094C17.7083 13.2344 18.5885 13.5417 20.1823 13.5417C21.8469 13.5417 21.875 14.8229 21.875 15.1042V18.75C21.875 20.4427 20.7031 20.8333 19.7917 20.8333C16.7917 20.8333 16.6667 22.8333 16.6667 23.9583C16.6667 24.349 16.599 25 15.7552 25C14.1927 25 15.3385 23.9583 13.9323 23.9583H13.2812C12.5 23.9583 12.5 24.5635 12.5 25C12.5 26.0417 13.5417 29.1667 16.6667 29.1667H17.4479H19.0104C19.6667 29.1667 20.3437 29.2604 20.9635 29.8177C22.2656 30.9896 22.4427 31.25 23.5677 31.25C24.6094 31.25 25 32.3073 25 32.6823C25 34.6354 23.938 35.7252 23.3297 36.1877C23.0318 36.4148 22.8181 36.7268 22.6847 37.0768C22.2123 38.3137 21.2068 40.9941 20.8048 43.2638C19.3523 42.9322 17.9684 42.4293 16.6667 41.7826V40.1042C16.6667 38.2292 14.5833 35.7396 14.5833 32.5521C14.5833 30.6771 11.9479 28.9479 11.1979 28.3854C10.1542 27.6021 9.25319 26.7015 8.50423 25.3276C8.38861 25.1161 8.23988 24.9183 8.06071 24.7579L7.7535 24.4853C7.37225 24.1467 6.87941 23.9583 6.37004 23.9583H6.3029C6.73921 16.013 12.0818 9.39362 19.3766 7.10856ZM35.8459 9.7168C40.6253 13.1124 43.75 18.681 43.75 25C43.75 31.2652 40.6764 36.7902 35.966 40.1937C35.4975 39.1751 34.8387 37.7478 34.5622 37.0931C34.2122 36.265 33.9664 35.6839 33.7789 35.262C33.5508 34.7516 33.1311 34.358 32.6029 34.1715C31.4248 33.757 29.1667 32.6375 29.1667 30.2083C29.1667 29.1771 29.5573 27.0833 33.3333 27.0833C36.1458 27.0833 38.5417 24.8958 38.5417 23.9583C38.5417 22.2729 37.9431 20.9811 37.5692 20.3206C37.3296 19.8988 36.8231 19.7098 36.3627 19.8608C35.8856 20.0181 35.2458 20.2812 34.6374 20.7031C32.9437 21.875 33.1146 23.9583 30.2083 23.9583C29.8333 23.9583 29.1667 22.0104 29.1667 21.3542C29.1667 20.8333 29.9687 20.6281 30.7292 20.3125C31.2667 20.0896 31.25 19.7917 31.25 19.2708C31.25 18.9104 30.5365 18.4 30.3385 18.099C30.2615 17.9812 30.2104 17.8448 30.2083 17.7083C30.2052 17.4708 30.3247 17.2297 30.5257 17.0776L32.6823 15.7552C33.4963 15.2464 35.1467 11.4093 35.8459 9.7168ZM4.25008 11.9792C3.97381 11.9792 3.70886 12.0889 3.51351 12.2843C3.31816 12.4796 3.20841 12.7446 3.20841 13.0208C3.20841 13.2971 3.31816 13.5621 3.51351 13.7574C3.70886 13.9528 3.97381 14.0625 4.25008 14.0625C4.52635 14.0625 4.7913 13.9528 4.98665 13.7574C5.182 13.5621 5.29175 13.2971 5.29175 13.0208C5.29175 12.7446 5.182 12.4796 4.98665 12.2843C4.7913 12.0889 4.52635 11.9792 4.25008 11.9792ZM45.7499 11.9792C45.4736 11.9792 45.2087 12.0889 45.0133 12.2843C44.818 12.4796 44.7083 12.7446 44.7083 13.0208C44.7083 13.2971 44.818 13.5621 45.0133 13.7574C45.2087 13.9528 45.4736 14.0625 45.7499 14.0625C46.0262 14.0625 46.2911 13.9528 46.4865 13.7574C46.6818 13.5621 46.7916 13.2971 46.7916 13.0208C46.7916 12.7446 46.6818 12.4796 46.4865 12.2843C46.2911 12.0889 46.0262 11.9792 45.7499 11.9792ZM1.8575 17.7572C1.58124 17.7572 1.31628 17.8669 1.12093 18.0623C0.925583 18.2576 0.815837 18.5226 0.815837 18.7988C0.815837 19.0751 0.925583 19.34 1.12093 19.5354C1.31628 19.7307 1.58124 19.8405 1.8575 19.8405C2.13377 19.8405 2.39872 19.7307 2.59407 19.5354C2.78942 19.34 2.89917 19.0751 2.89917 18.7988C2.89917 18.5226 2.78942 18.2576 2.59407 18.0623C2.39872 17.8669 2.13377 17.7572 1.8575 17.7572ZM48.1425 17.7572C47.8662 17.7572 47.6013 17.8669 47.4059 18.0623C47.2106 18.2576 47.1008 18.5226 47.1008 18.7988C47.1008 19.0751 47.2106 19.34 47.4059 19.5354C47.6013 19.7307 47.8662 19.8405 48.1425 19.8405C48.4188 19.8405 48.6837 19.7307 48.8791 19.5354C49.0744 19.34 49.1842 19.0751 49.1842 18.7988C49.1842 18.5226 49.0744 18.2576 48.8791 18.0623C48.6837 17.8669 48.4188 17.7572 48.1425 17.7572ZM1.04167 23.9583C0.765399 23.9583 0.500447 24.0681 0.305097 24.2634C0.109747 24.4588 0 24.7237 0 25C0 25.2763 0.109747 25.5412 0.305097 25.7366C0.500447 25.9319 0.765399 26.0417 1.04167 26.0417C1.31793 26.0417 1.58289 25.9319 1.77824 25.7366C1.97359 25.5412 2.08333 25.2763 2.08333 25C2.08333 24.7237 1.97359 24.4588 1.77824 24.2634C1.58289 24.0681 1.31793 23.9583 1.04167 23.9583ZM48.9583 23.9583C48.6821 23.9583 48.4171 24.0681 48.2218 24.2634C48.0264 24.4588 47.9167 24.7237 47.9167 25C47.9167 25.2763 48.0264 25.5412 48.2218 25.7366C48.4171 25.9319 48.6821 26.0417 48.9583 26.0417C49.2346 26.0417 49.4996 25.9319 49.6949 25.7366C49.8903 25.5412 50 25.2763 50 25C50 24.7237 49.8903 24.4588 49.6949 24.2634C49.4996 24.0681 49.2346 23.9583 48.9583 23.9583ZM1.8575 30.1595C1.58124 30.1595 1.31628 30.2692 1.12093 30.4646C0.925583 30.66 0.815837 30.9249 0.815837 31.2012C0.815837 31.4774 0.925583 31.7424 1.12093 31.9377C1.31628 32.1331 1.58124 32.2428 1.8575 32.2428C2.13377 32.2428 2.39872 32.1331 2.59407 31.9377C2.78942 31.7424 2.89917 31.4774 2.89917 31.2012C2.89917 30.9249 2.78942 30.66 2.59407 30.4646C2.39872 30.2692 2.13377 30.1595 1.8575 30.1595ZM48.1425 30.1595C47.8662 30.1595 47.6013 30.2692 47.4059 30.4646C47.2106 30.66 47.1008 30.9249 47.1008 31.2012C47.1008 31.4774 47.2106 31.7424 47.4059 31.9377C47.6013 32.1331 47.8662 32.2428 48.1425 32.2428C48.4188 32.2428 48.6837 32.1331 48.8791 31.9377C49.0744 31.7424 49.1842 31.4774 49.1842 31.2012C49.1842 30.9249 49.0744 30.66 48.8791 30.4646C48.6837 30.2692 48.4188 30.1595 48.1425 30.1595ZM4.25008 35.9375C3.97381 35.9375 3.70886 36.0472 3.51351 36.2426C3.31816 36.4379 3.20841 36.7029 3.20841 36.9792C3.20841 37.2554 3.31816 37.5204 3.51351 37.7157C3.70886 37.9111 3.97381 38.0208 4.25008 38.0208C4.52635 38.0208 4.7913 37.9111 4.98665 37.7157C5.182 37.5204 5.29175 37.2554 5.29175 36.9792C5.29175 36.7029 5.182 36.4379 4.98665 36.2426C4.7913 36.0472 4.52635 35.9375 4.25008 35.9375ZM45.7499 35.9375C45.4736 35.9375 45.2087 36.0472 45.0133 36.2426C44.818 36.4379 44.7083 36.7029 44.7083 36.9792C44.7083 37.2554 44.818 37.5204 45.0133 37.7157C45.2087 37.9111 45.4736 38.0208 45.7499 38.0208C46.0262 38.0208 46.2911 37.9111 46.4865 37.7157C46.6818 37.5204 46.7916 37.2554 46.7916 36.9792C46.7916 36.7029 46.6818 36.4379 46.4865 36.2426C46.2911 36.0472 46.0262 35.9375 45.7499 35.9375ZM8.05867 40.8997C7.78241 40.8997 7.51746 41.0094 7.32211 41.2048C7.12676 41.4001 7.01701 41.6651 7.01701 41.9413C7.01701 42.2176 7.12676 42.4825 7.32211 42.6779C7.51746 42.8732 7.78241 42.983 8.05867 42.983C8.33494 42.983 8.59989 42.8732 8.79524 42.6779C8.99059 42.4825 9.10034 42.2176 9.10034 41.9413C9.10034 41.6651 8.99059 41.4001 8.79524 41.2048C8.59989 41.0094 8.33494 40.8997 8.05867 40.8997ZM41.9413 40.8997C41.6651 40.8997 41.4001 41.0094 41.2048 41.2048C41.0094 41.4001 40.8997 41.6651 40.8997 41.9413C40.8997 42.2176 41.0094 42.4825 41.2048 42.6779C41.4001 42.8732 41.6651 42.983 41.9413 42.983C42.2176 42.983 42.4825 42.8732 42.6779 42.6779C42.8732 42.4825 42.983 42.2176 42.983 41.9413C42.983 41.6651 42.8732 41.4001 42.6779 41.2048C42.4825 41.0094 42.2176 40.8997 41.9413 40.8997ZM13.0208 44.7083C12.7446 44.7083 12.4796 44.818 12.2843 45.0133C12.0889 45.2087 11.9792 45.4736 11.9792 45.7499C11.9792 46.0262 12.0889 46.2911 12.2843 46.4865C12.4796 46.6818 12.7446 46.7916 13.0208 46.7916C13.2971 46.7916 13.5621 46.6818 13.7574 46.4865C13.9528 46.2911 14.0625 46.0262 14.0625 45.7499C14.0625 45.4736 13.9528 45.2087 13.7574 45.0133C13.5621 44.818 13.2971 44.7083 13.0208 44.7083ZM36.9792 44.7083C36.7029 44.7083 36.4379 44.818 36.2426 45.0133C36.0472 45.2087 35.9375 45.4736 35.9375 45.7499C35.9375 46.0262 36.0472 46.2911 36.2426 46.4865C36.4379 46.6818 36.7029 46.7916 36.9792 46.7916C37.2554 46.7916 37.5204 46.6818 37.7157 46.4865C37.9111 46.2911 38.0208 46.0262 38.0208 45.7499C38.0208 45.4736 37.9111 45.2087 37.7157 45.0133C37.5204 44.818 37.2554 44.7083 36.9792 44.7083ZM18.7988 47.1008C18.5226 47.1008 18.2576 47.2106 18.0623 47.4059C17.8669 47.6013 17.7572 47.8662 17.7572 48.1425C17.7572 48.4188 17.8669 48.6837 18.0623 48.8791C18.2576 49.0744 18.5226 49.1842 18.7988 49.1842C19.0751 49.1842 19.34 49.0744 19.5354 48.8791C19.7307 48.6837 19.8405 48.4188 19.8405 48.1425C19.8405 47.8662 19.7307 47.6013 19.5354 47.4059C19.34 47.2106 19.0751 47.1008 18.7988 47.1008ZM31.2012 47.1008C30.9249 47.1008 30.66 47.2106 30.4646 47.4059C30.2692 47.6013 30.1595 47.8662 30.1595 48.1425C30.1595 48.4188 30.2692 48.6837 30.4646 48.8791C30.66 49.0744 30.9249 49.1842 31.2012 49.1842C31.4774 49.1842 31.7424 49.0744 31.9377 48.8791C32.1331 48.6837 32.2428 48.4188 32.2428 48.1425C32.2428 47.8662 32.1331 47.6013 31.9377 47.4059C31.7424 47.2106 31.4774 47.1008 31.2012 47.1008ZM25 47.9167C24.7237 47.9167 24.4588 48.0264 24.2634 48.2218C24.0681 48.4171 23.9583 48.6821 23.9583 48.9583C23.9583 49.2346 24.0681 49.4996 24.2634 49.6949C24.4588 49.8903 24.7237 50 25 50C25.2763 50 25.5412 49.8903 25.7366 49.6949C25.9319 49.4996 26.0417 49.2346 26.0417 48.9583C26.0417 48.6821 25.9319 48.4171 25.7366 48.2218C25.5412 48.0264 25.2763 47.9167 25 47.9167Z" fill="#00ACC7"/>
</g>
<defs>
<clipPath id="clip0_938_1056">
<rect width="50" height="50" fill="white"/>
</clipPath>
</defs>
</svg>