<svg width="50" height="50" viewBox="0 0 50 50" fill="none" xmlns="http://www.w3.org/2000/svg">
<g clip-path="url(#clip0_882_1253)">
<path d="M0 7V9.78125C3.012 12.4033 20.299 27.4506 21.666 28.6426C23.072 29.8676 24.466 30 25 30C25.534 30 26.928 29.8676 28.334 28.6426C29.752 27.4066 48.046 11.4862 50 9.78516V7H0ZM0 12.4316V37.5254L15.1152 25.5898C10.2142 21.3228 3.231 15.2446 0 12.4316ZM50 12.4355C46.949 15.0905 39.8558 21.2648 34.8848 25.5918L50 37.4863V12.4355ZM16.6504 26.9258L0 40.0742V43H30.7422L28.1992 47.5996C28.0992 47.6996 28.0996 47.8996 28.0996 48.0996C28.0996 49.0996 29 50 30 50H48.0996C49.0996 50 50 49.1996 50 48.0996C50 47.8996 50.0004 47.7996 49.9004 47.5996L47.3125 43H50V40.0313L42.1836 33.8809L40.9004 31.5996C40.7004 31.1996 40.1 30 39 30C38.535 30 38.165 30.218 37.8711 30.4883L33.3477 26.9297C31.4107 28.6157 30.0005 29.8414 29.6465 30.1504C27.7305 31.8184 25.759 32 25 32C24.241 32 22.2686 31.8184 20.3516 30.1484C20.0006 29.8424 18.5914 28.6158 16.6504 26.9258ZM39 32.1992C39 32.2992 39.0996 32.4004 39.0996 32.4004L47.8008 48H30.3008L38.9004 32.4004C38.9004 32.4004 39 32.2992 39 32.1992ZM38.1992 37C38.0992 37 38 37.0992 38 37.1992V42.8008C38 42.9008 38.0992 43 38.1992 43H39.8008C39.9008 43 40 42.9008 40 42.8008V37.1992C40 37.0992 39.9008 37 39.8008 37H38.1992ZM38.1992 45C38.0992 45 38 45.0992 38 45.1992V46.8008C38 46.9008 38.0992 47 38.1992 47H39.8008C39.9008 47 40 46.9008 40 46.8008V45.1992C40 45.0992 39.9008 45 39.8008 45H38.1992Z" fill="#C5E452"/>
</g>
<defs>
<clipPath id="clip0_882_1253">
<rect width="50" height="50" fill="white"/>
</clipPath>
</defs>
</svg>