<svg width="24" height="24" viewBox="0 0 24 24" fill="none" xmlns="http://www.w3.org/2000/svg">
<path d="M4.33333 13H1.44444C0.6467 13 0 13.6467 0 14.4444V21.6667C0 22.4644 0.6467 23.1111 1.44444 23.1111H4.33333C5.13108 23.1111 5.77778 22.4644 5.77778 21.6667V14.4444C5.77778 13.6467 5.13108 13 4.33333 13Z" fill="#00ACC7"/>
<path d="M13.1107 0H10.2218C9.42404 0 8.77734 0.6467 8.77734 1.44444V21.6667C8.77734 22.4644 9.42404 23.1111 10.2218 23.1111H13.1107C13.9084 23.1111 14.5551 22.4644 14.5551 21.6667V1.44444C14.5551 0.6467 13.9084 0 13.1107 0Z" fill="#00ACC7"/>
<path d="M21.889 5.77783H19.0001C18.2024 5.77783 17.5557 6.42453 17.5557 7.22228V21.6667C17.5557 22.4645 18.2024 23.1112 19.0001 23.1112H21.889C22.6867 23.1112 23.3334 22.4645 23.3334 21.6667V7.22228C23.3334 6.42453 22.6867 5.77783 21.889 5.77783Z" fill="#00ACC7"/>
</svg>