<svg width="26" height="26" viewBox="0 0 26 26" fill="none" xmlns="http://www.w3.org/2000/svg">
<path d="M10.0755 6.49993C10.1214 6.49927 10.1663 6.48701 10.2061 6.46427C10.2459 6.44153 10.2792 6.40907 10.303 6.36993C10.3249 6.33007 10.3363 6.28536 10.3363 6.23993C10.3363 6.19449 10.3249 6.14978 10.303 6.10993L7.58388 0.303259C7.53439 0.217791 7.4633 0.146836 7.37773 0.097509C7.29217 0.048182 7.19514 0.0222168 7.09638 0.0222168C6.99761 0.0222168 6.90059 0.048182 6.81502 0.097509C6.72946 0.146836 6.65837 0.217791 6.60888 0.303259L3.77054 6.10993C3.74874 6.14978 3.7373 6.19449 3.7373 6.23993C3.7373 6.28536 3.74874 6.33007 3.77054 6.36993C3.79532 6.41065 3.8304 6.44412 3.87225 6.46694C3.91409 6.48977 3.96123 6.50115 4.00888 6.49993H10.0755Z" fill="#00ACC7"/>
<path d="M3.79232 21.9375C3.72049 21.9375 3.6516 21.966 3.60081 22.0168C3.55002 22.0676 3.52148 22.1365 3.52148 22.2083V22.4792C3.52148 23.4129 3.89243 24.3085 4.55271 24.9688C5.213 25.6291 6.10853 26 7.04232 26C7.9761 26 8.87164 25.6291 9.53192 24.9688C10.1922 24.3085 10.5632 23.4129 10.5632 22.4792V22.2083C10.5632 22.1365 10.5346 22.0676 10.4838 22.0168C10.433 21.966 10.3641 21.9375 10.2923 21.9375H3.79232Z" fill="#00ACC7"/>
<path d="M20.8551 0H15.4385C15.0075 0 14.5942 0.171205 14.2894 0.475951C13.9847 0.780698 13.8135 1.19402 13.8135 1.625V2.97917C13.8135 3.051 13.842 3.11988 13.8928 3.17067C13.9436 3.22147 14.0125 3.25 14.0843 3.25H15.9801C16.1238 3.25 16.2616 3.30707 16.3632 3.40865C16.4647 3.51023 16.5218 3.64801 16.5218 3.79167C16.5218 3.93533 16.4647 4.0731 16.3632 4.17468C16.2616 4.27627 16.1238 4.33333 15.9801 4.33333H14.0843C14.0125 4.33333 13.9436 4.36187 13.8928 4.41266C13.842 4.46345 13.8135 4.53234 13.8135 4.60417V7.3125C13.8135 7.38433 13.842 7.45322 13.8928 7.50401C13.9436 7.5548 14.0125 7.58333 14.0843 7.58333H15.9801C16.1238 7.58333 16.2616 7.6404 16.3632 7.74198C16.4647 7.84357 16.5218 7.98134 16.5218 8.125C16.5218 8.26866 16.4647 8.40643 16.3632 8.50802C16.2616 8.6096 16.1238 8.66667 15.9801 8.66667H14.0843C14.0125 8.66667 13.9436 8.6952 13.8928 8.74599C13.842 8.79678 13.8135 8.86567 13.8135 8.9375V11.6458C13.8135 11.7177 13.842 11.7866 13.8928 11.8373C13.9436 11.8881 14.0125 11.9167 14.0843 11.9167H15.9801C16.1238 11.9167 16.2616 11.9737 16.3632 12.0753C16.4647 12.1769 16.5218 12.3147 16.5218 12.4583C16.5218 12.602 16.4647 12.7398 16.3632 12.8414C16.2616 12.9429 16.1238 13 15.9801 13H14.0843C14.0125 13 13.9436 13.0285 13.8928 13.0793C13.842 13.1301 13.8135 13.199 13.8135 13.2708V15.9792C13.8135 16.051 13.842 16.1199 13.8928 16.1707C13.9436 16.2215 14.0125 16.25 14.0843 16.25H15.9801C16.1238 16.25 16.2616 16.3071 16.3632 16.4087C16.4647 16.5102 16.5218 16.648 16.5218 16.7917C16.5218 16.9353 16.4647 17.0731 16.3632 17.1747C16.2616 17.2763 16.1238 17.3333 15.9801 17.3333H14.0843C14.0125 17.3333 13.9436 17.3619 13.8928 17.4127C13.842 17.4635 13.8135 17.5323 13.8135 17.6042V24.375C13.8135 24.806 13.9847 25.2193 14.2894 25.524C14.5942 25.8288 15.0075 26 15.4385 26H20.8551C21.2861 26 21.6994 25.8288 22.0042 25.524C22.3089 25.2193 22.4801 24.806 22.4801 24.375V1.625C22.4801 1.19402 22.3089 0.780698 22.0042 0.475951C21.6994 0.171205 21.2861 0 20.8551 0V0ZM18.1468 21.125C18.4146 21.125 18.6765 21.2044 18.8991 21.3532C19.1218 21.502 19.2954 21.7135 19.3979 21.961C19.5004 22.2084 19.5272 22.4807 19.475 22.7434C19.4227 23.006 19.2937 23.2473 19.1044 23.4367C18.915 23.6261 18.6737 23.7551 18.411 23.8073C18.1483 23.8596 17.876 23.8327 17.6286 23.7303C17.3812 23.6278 17.1697 23.4542 17.0209 23.2315C16.8721 23.0088 16.7926 22.747 16.7926 22.4792C16.7926 22.12 16.9353 21.7756 17.1893 21.5216C17.4432 21.2677 17.7877 21.125 18.1468 21.125Z" fill="#00ACC7"/>
<path d="M6.50065 8.12504C6.50065 7.98138 6.44358 7.84361 6.342 7.74202C6.24042 7.64044 6.10264 7.58337 5.95898 7.58337H3.79232C3.72049 7.58337 3.6516 7.61191 3.60081 7.6627C3.55002 7.71349 3.52148 7.78238 3.52148 7.85421V20.5834C3.52148 20.6552 3.55002 20.7241 3.60081 20.7749C3.6516 20.8257 3.72049 20.8542 3.79232 20.8542H5.95898C6.10264 20.8542 6.24042 20.7971 6.342 20.6956C6.44358 20.594 6.50065 20.4562 6.50065 20.3125V8.12504Z" fill="#00ACC7"/>
<path d="M10.5632 7.85421C10.5632 7.78238 10.5346 7.71349 10.4838 7.6627C10.433 7.61191 10.3641 7.58337 10.2923 7.58337H8.12565C7.98199 7.58337 7.84422 7.64044 7.74263 7.74202C7.64105 7.84361 7.58398 7.98138 7.58398 8.12504V20.3125C7.58398 20.4562 7.64105 20.594 7.74263 20.6956C7.84422 20.7971 7.98199 20.8542 8.12565 20.8542H10.2923C10.3641 20.8542 10.433 20.8257 10.4838 20.7749C10.5346 20.7241 10.5632 20.6552 10.5632 20.5834V7.85421Z" fill="#00ACC7"/>
</svg>