<svg width="50" height="50" viewBox="0 0 50 50" fill="none" xmlns="http://www.w3.org/2000/svg">
<path d="M3 6C1.34766 6 0 7.34766 0 9V15C0 16.6523 1.34766 18 3 18H11C12.6523 18 14 16.6523 14 15V9C14 7.34766 12.6523 6 11 6H3ZM23 6C21.3477 6 20 7.34766 20 9V11H16V13H20V15C20 16.6523 21.3477 18 23 18H31C32.6523 18 34 16.6523 34 15V9C34 7.34766 32.6523 6 31 6H23ZM36 11V13H39C40.6523 13 42 14.3477 42 16V17H44V16C44 13.2422 41.7578 11 39 11H36ZM39 19C37.3477 19 36 20.3477 36 22V28C36 29.6523 37.3477 31 39 31H47C48.6523 31 50 29.6523 50 28V22C50 20.3477 48.6523 19 47 19H39ZM3 32C1.34766 32 0 33.3477 0 35V41C0 42.6523 1.34766 44 3 44H11C12.6523 44 14 42.6523 14 41V35C14 33.3477 12.6523 32 11 32H3ZM23 32C21.3477 32 20 33.3477 20 35V37H16V39H20V41C20 42.6523 21.3477 44 23 44H31C32.6523 44 34 42.6523 34 41V35C34 33.3477 32.6523 32 31 32H23ZM42 33V34C42 35.6523 40.6523 37 39 37H36V39H39C41.7578 39 44 36.7578 44 34V33H42Z" fill="#00ACC7"/>
</svg>