<svg width="150" height="39" viewBox="0 0 150 39" fill="none" xmlns="http://www.w3.org/2000/svg">
<g clip-path="url(#clip0_826_1059)">
<path d="M48.7577 27.7406C47.6382 27.7406 46.4358 27.6175 45.1505 27.3713C43.8859 27.1455 42.8908 26.8171 42.1653 26.3862V22.7537C42.9945 23.2462 43.9895 23.6465 45.1505 23.9543C46.3114 24.2621 47.3895 24.4161 48.3845 24.4161C49.2344 24.4161 49.8564 24.3443 50.2503 24.2006C50.6442 24.0569 50.8411 23.7901 50.8411 23.4002C50.8411 23.0923 50.7271 22.8461 50.4991 22.6613C50.271 22.4562 49.9186 22.2817 49.4418 22.1381C48.9857 21.9739 48.2187 21.7378 47.1407 21.4301C45.8761 21.0607 44.881 20.6912 44.1554 20.3218C43.4505 19.9319 42.9116 19.4496 42.5384 18.8749C42.186 18.3004 42.0098 17.5615 42.0098 16.6585C42.0098 15.1194 42.6213 13.9702 43.8445 13.2108C45.0883 12.4309 46.7675 12.041 48.8821 12.041C49.9186 12.041 50.9862 12.1539 52.085 12.3796C53.2044 12.5849 54.0648 12.8619 54.666 13.2108V16.7509C54.0648 16.361 53.2769 16.0429 52.3027 15.7966C51.349 15.5504 50.4161 15.4273 49.5039 15.4273C48.654 15.4273 47.9907 15.5093 47.5138 15.6735C47.0577 15.8376 46.8297 16.1455 46.8297 16.597C46.8297 16.9869 47.0473 17.2845 47.4827 17.4898C47.9388 17.695 48.7784 17.9514 50.0015 18.2593L50.6235 18.4133C51.9295 18.7621 52.9453 19.1521 53.6709 19.583C54.3965 19.9935 54.9043 20.4962 55.1947 21.0914C55.5055 21.666 55.661 22.3947 55.661 23.2771C55.661 24.6316 55.0702 25.7192 53.8886 26.5401C52.7069 27.3405 50.9966 27.7406 48.7577 27.7406Z" fill="#0A1629" fill-opacity="0.74"/>
<path d="M64.2404 27.7409C62.2087 27.7409 60.6851 27.197 59.6692 26.1094C58.6534 25.0012 58.1455 23.5339 58.1455 21.7073V12.5029H62.841V21.2148C62.841 23.1438 63.7429 24.1084 65.5465 24.1084C66.3342 24.1084 67.0702 23.9238 67.7543 23.5543C68.4384 23.1849 69.0085 22.6308 69.4645 21.892V12.5029H74.1601V27.2792H69.62V25.4937C68.9567 26.2531 68.1481 26.8174 67.1946 27.1868C66.2617 27.5562 65.277 27.7409 64.2404 27.7409Z" fill="#0A1629" fill-opacity="0.74"/>
<path d="M77.4326 12.5027H81.8173V14.2882C82.46 13.5699 83.2062 13.0158 84.0562 12.6259C84.9061 12.236 85.7872 12.041 86.6993 12.041C87.8396 12.041 88.7518 12.2257 89.4358 12.5951C90.12 12.944 90.659 13.4673 91.0529 14.1651C91.6956 13.4879 92.4729 12.9645 93.3851 12.5951C94.318 12.2257 95.2405 12.041 96.1526 12.041C98.0599 12.041 99.4177 12.5233 100.226 13.4879C101.055 14.4525 101.47 15.8479 101.47 17.6744V27.279H96.9923V18.3209C96.9923 17.3769 96.8056 16.6996 96.4326 16.2892C96.0594 15.8787 95.4582 15.6735 94.6289 15.6735C93.468 15.6735 92.5351 16.1249 91.8302 17.0279C91.8717 17.6846 91.8924 18.2182 91.8924 18.6287V27.279H87.3835V18.1669C87.3835 17.264 87.2177 16.6278 86.886 16.2584C86.575 15.8685 86.0256 15.6735 85.2378 15.6735C84.0147 15.6735 82.9263 16.361 81.9728 17.736V27.279H77.4326V12.5027Z" fill="#0A1629" fill-opacity="0.74"/>
<path d="M104.582 12.5027H108.966V14.2882C109.609 13.5699 110.355 13.0158 111.205 12.6259C112.055 12.236 112.936 12.041 113.848 12.041C114.988 12.041 115.9 12.2257 116.585 12.5951C117.27 12.944 117.808 13.4673 118.202 14.1651C118.844 13.4879 119.622 12.9645 120.535 12.5951C121.467 12.2257 122.39 12.041 123.301 12.041C125.21 12.041 126.566 12.5233 127.375 13.4879C128.205 14.4525 128.619 15.8479 128.619 17.6744V27.279H124.141V18.3209C124.141 17.3769 123.955 16.6996 123.582 16.2892C123.209 15.8787 122.607 15.6735 121.778 15.6735C120.617 15.6735 119.684 16.1249 118.98 17.0279C119.02 17.6846 119.041 18.2182 119.041 18.6287V27.279H114.533V18.1669C114.533 17.264 114.366 16.6278 114.035 16.2584C113.724 15.8685 113.175 15.6735 112.387 15.6735C111.164 15.6735 110.076 16.361 109.121 17.736V27.279H104.582V12.5027Z" fill="#0A1629" fill-opacity="0.74"/>
<path d="M134.311 10.2252C133.585 10.2252 132.974 9.98925 132.476 9.5172C131.978 9.04515 131.729 8.45 131.729 7.73175C131.729 7.03397 131.978 6.44911 132.476 5.97709C132.974 5.48456 133.585 5.23828 134.311 5.23828C135.036 5.23828 135.648 5.48456 136.146 5.97709C136.643 6.44911 136.892 7.03397 136.892 7.73175C136.892 8.45 136.643 9.04515 136.146 9.5172C135.648 9.98925 135.036 10.2252 134.311 10.2252ZM131.947 12.5032H136.674V27.2794H131.947V12.5032Z" fill="#0A1629" fill-opacity="0.74"/>
<path d="M146.361 27.7411C144.62 27.7411 143.293 27.2692 142.382 26.3251C141.491 25.3605 141.045 24.0266 141.045 22.3232V15.8587H138.868V12.5032H141.045V8.07031L145.739 9.353V12.5032H149.253V15.8587H145.739V21.7076C145.739 22.5695 145.906 23.1954 146.237 23.5854C146.569 23.9547 147.16 24.1395 148.01 24.1395C148.694 24.1395 149.347 23.9753 149.969 23.647V27.1255C149.016 27.536 147.813 27.7411 146.361 27.7411Z" fill="#0A1629" fill-opacity="0.74"/>
<path d="M11.904 28.4251C11.9453 28.1387 11.9381 27.8578 11.8888 27.5898H23.8306L15.6019 37.5866C13.8961 39.659 10.4903 38.2085 10.8713 35.5719L11.904 28.4251Z" fill="#FA5E22"/>
<path d="M30.4875 13.1582H7.18923L0.598316 21.1653C-0.813632 22.8807 0.431821 25.4348 2.68022 25.4348H6.73705H25.6215L32.2142 17.4058C33.5499 15.7831 32.5075 13.4098 30.4875 13.1582Z" fill="#FFAB01"/>
<path d="M8.97852 10.9837H20.9226C20.8729 10.715 20.8654 10.4334 20.9069 10.1462L21.9396 2.99938C22.3206 0.362852 18.9148 -1.08765 17.209 0.984661L8.97852 10.9837Z" fill="#00ACC7"/>
</g>
<defs>
<clipPath id="clip0_826_1059">
<rect width="150" height="38.5714" fill="white"/>
</clipPath>
</defs>
</svg>