<svg width="50" height="50" viewBox="0 0 50 50" fill="none" xmlns="http://www.w3.org/2000/svg">
<path d="M37.9747 7C36.0769 7 34.4423 7.42881 33.1177 8.22275C34.4551 8.93177 35.542 10.0823 36.2765 11.5853C37.4355 13.9586 37.478 16.6589 36.9897 18.6161C37.1935 19.3039 37.253 20.0893 37.1595 20.8578C36.9388 22.7089 36.2467 23.851 35.5292 24.56C35.2532 25.4771 34.8372 26.5003 34.2385 27.3791C34.2385 27.6339 34.23 27.8759 34.2385 28.1264C34.7268 28.4278 35.7118 28.8226 36.3444 29.0774C38.7177 30.0327 42.3775 31.5144 43.8847 35.2591H48.9115C49.2087 35.2591 49.4889 35.1359 49.6927 34.9194C49.8965 34.7029 50.0154 34.4014 49.9984 34.1042C49.7479 29.8416 46.3556 28.483 43.8847 27.481C42.5685 26.9461 41.3288 26.4493 40.9636 25.7148C40.9085 25.0185 40.9254 24.4496 40.9297 23.8128V23.643C41.5283 22.9467 42.0208 21.7664 42.2543 20.7219C42.7681 20.378 43.3412 19.6903 43.511 18.2425C43.5875 17.6056 43.4813 17.0325 43.2393 16.5782C43.77 15.1177 43.7488 12.7698 42.8657 10.9739C42.1227 9.46248 40.8872 8.56664 39.3333 8.35861L38.9597 7.61137C38.7771 7.242 38.3865 7 37.9747 7ZM28.906 8.08689C26.2907 8.08689 24.032 8.82988 22.4186 10.1588C23.3484 10.872 24.1169 11.8146 24.6943 12.9779C25.8406 15.2833 26.1548 18.3571 25.5095 20.7899C25.7387 21.5244 25.8109 22.3395 25.7133 23.1674C25.4798 25.1799 24.741 26.4026 23.981 27.1414C23.6881 28.1603 23.1871 29.3788 22.5205 30.3681C22.5163 30.7841 22.5375 31.145 22.5545 31.5568C23.0385 31.9135 24.1933 32.4102 25 32.7456C27.7215 33.8707 31.5935 35.4798 33.0837 39.6406L41.3033 39.6066C41.6005 39.6066 41.8807 39.4835 42.0845 39.2669C42.2883 39.0504 42.4072 38.749 42.3902 38.4518C42.11 33.7391 38.3016 32.2277 35.5292 31.1153C33.9923 30.4997 32.5573 29.8968 32.1327 29.0095C32.069 28.2155 32.0563 27.5914 32.0648 26.8696V26.6659C32.7526 25.9016 33.3682 24.5345 33.6272 23.3373C34.1918 22.9849 34.8244 22.2122 35.0197 20.5861C35.1047 19.8728 34.9603 19.2105 34.6801 18.718C35.2872 17.1259 35.2872 14.5445 34.3065 12.5363C33.4743 10.8338 32.0945 9.78939 30.3325 9.58136L29.857 8.69826C29.6745 8.32889 29.3178 8.08689 28.906 8.08689ZM17.0182 9.17377C13.2353 9.17377 10.2464 10.5791 8.56084 13.1477C7.11307 15.3512 6.80738 18.1915 7.74567 20.8578C7.423 21.3545 7.23619 22.0636 7.33809 22.9297C7.54613 24.7341 8.21694 25.5492 8.83256 25.9186C9.11277 27.239 9.77085 28.7844 10.5308 29.6208V29.9265C10.5393 30.7459 10.569 31.4295 10.4969 32.338C10.0383 33.3825 8.58207 34.0278 6.93051 34.7496C4.12838 35.9808 0.298801 37.6578 0.00160478 42.7993C-0.0153778 43.0965 0.1035 43.398 0.307292 43.6145C0.511083 43.831 0.791297 43.9541 1.08849 43.9541H30.4344C30.7359 43.9541 31.0076 43.831 31.2156 43.6145C31.4194 43.398 31.5383 43.0965 31.5213 42.7993C31.2241 37.6494 27.3224 36.0445 24.1848 34.7496C22.4271 34.0236 20.8775 33.374 20.4147 32.338C20.3425 31.4295 20.3722 30.7459 20.3807 29.9265V29.6208C21.1237 28.7887 21.7691 27.239 22.045 25.9186C22.6606 25.5492 23.3315 24.7298 23.5395 22.9297C23.6287 22.1442 23.5098 21.4182 23.1998 20.8918C23.8919 19.1341 23.8791 16.1833 22.7583 13.9289C21.8625 12.1287 20.368 11.0504 18.5126 10.8381L18.0032 9.78515C17.8206 9.41153 17.4342 9.17377 17.0182 9.17377Z" fill="#00ACC7"/>
</svg>