<svg width="50" height="50" viewBox="0 0 50 50" fill="none" xmlns="http://www.w3.org/2000/svg">
<g clip-path="url(#clip0_938_1060)">
<path d="M37.094 0.0937098C36.3166 0.167929 35.6526 0.691366 35.3986 1.42965C35.1408 2.17183 35.3401 2.99215 35.9065 3.53121L42.3752 9.99996H2.00021C1.93771 9.99605 1.87521 9.99605 1.81271 9.99996C0.707236 10.0507 -0.144326 10.9882 -0.0935451 12.0937C-0.0427639 13.1992 0.894736 14.0507 2.00021 14H42.3752L35.9065 20.4687C35.383 20.9687 35.1682 21.7109 35.3479 22.414C35.5276 23.1132 36.0705 23.664 36.7697 23.8515C37.469 24.039 38.2151 23.832 38.719 23.3125L50.0315 12L38.719 0.68746C38.2971 0.253866 37.6994 0.0351161 37.094 0.0937098ZM10.0002 32.9062C7.53536 32.9062 5.4963 34.6718 5.03146 37H1.00021C0.445518 37 0.000204902 37.4453 0.000204902 38C0.000204902 38.5546 0.445518 39 1.00021 39H5.03146C5.4963 41.3281 7.53536 43.0937 10.0002 43.0937C12.8049 43.0937 15.094 40.8046 15.094 38C15.094 35.1953 12.8049 32.9062 10.0002 32.9062ZM25.0002 32.9062C22.5354 32.9062 20.4963 34.6718 20.0315 37H17.0002C17.0471 37.3281 17.094 37.6601 17.094 38C17.094 38.3398 17.0471 38.6718 17.0002 39H20.0315C20.4963 41.3281 22.5354 43.0937 25.0002 43.0937C27.8049 43.0937 30.094 40.8046 30.094 38C30.094 35.1953 27.8049 32.9062 25.0002 32.9062ZM40.0002 32.9062C37.5354 32.9062 35.4963 34.6718 35.0315 37H32.0002C32.0471 37.3281 32.094 37.6601 32.094 38C32.094 38.3398 32.0471 38.6718 32.0002 39H35.0315C35.4963 41.3281 37.5354 43.0937 40.0002 43.0937C42.8049 43.0937 45.094 40.8046 45.094 38C45.094 35.1953 42.8049 32.9062 40.0002 32.9062ZM47.0002 37C47.0471 37.3281 47.094 37.6601 47.094 38C47.094 38.3398 47.0471 38.6718 47.0002 39H49.0002C49.551 39 50.0002 38.5546 50.0002 38C50.0002 37.4453 49.551 37 49.0002 37H47.0002Z" fill="#00ACC7"/>
</g>
<defs>
<clipPath id="clip0_938_1060">
<rect width="50" height="50" fill="white"/>
</clipPath>
</defs>
</svg>