<svg width="50" height="50" viewBox="0 0 50 50" fill="none" xmlns="http://www.w3.org/2000/svg">
<path d="M24.913 0C22.5188 0 20.5711 1.94433 20.5652 4.33721L10.4705 10.1074C10.9173 10.6759 11.2717 11.3192 11.5108 12.016L21.1596 6.50263C21.9112 7.8058 23.3033 8.69565 24.913 8.69565C27.3109 8.69565 29.2609 6.74565 29.2609 4.34783C29.2609 1.95 27.3109 0 24.913 0ZM31.3244 5.51758C31.1896 6.25888 30.9285 6.95594 30.5644 7.58747L40.2599 13.1263C40.1827 13.4503 40.1304 13.7831 40.1304 14.1304C40.1304 16.5283 42.0804 18.4783 44.4783 18.4783C46.8761 18.4783 48.8261 16.5283 48.8261 14.1304C48.8261 11.7326 46.8761 9.78261 44.4783 9.78261C43.2095 9.78261 42.0765 10.3378 41.2811 11.2071L31.3244 5.51758ZM5.34783 9.78261C2.95 9.78261 1 11.7326 1 14.1304C1 16.1505 2.39112 17.8371 4.26087 18.3233V29.4455C4.61522 29.3857 4.97717 29.3478 5.34783 29.3478C5.71848 29.3478 6.08044 29.3857 6.43478 29.4455V18.3233C8.30453 17.8371 9.69565 16.1505 9.69565 14.1304C9.69565 11.7326 7.74565 9.78261 5.34783 9.78261ZM25.7028 14.1304C20.5647 14.1304 19.1278 17.3581 20.3126 21.4016C20.1506 21.507 19.8822 21.8409 19.9496 22.4355C20.0746 23.542 20.5005 23.8223 20.7711 23.8451C20.7711 25.0842 22.3946 26.3298 22.7391 26.5222V28.6281C21.9565 30.8651 16.2174 30.4354 16.2174 34.1224C16.2174 34.468 16.4067 34.7826 16.7524 34.7826H33.0737C33.4194 34.7826 33.6087 34.468 33.6087 34.1224C33.6087 30.4354 27.8696 30.864 27.087 28.6281V26.5222C27.4304 26.3309 29.0337 25.0327 29.0337 23.8621C29.3044 23.8393 29.7303 23.5579 29.8553 22.4524C29.9227 21.859 29.7118 21.4838 29.4923 21.4186C30.351 18.699 29.7272 15.2174 26 15.2174L25.7028 14.1304ZM43.3913 20.5545V31.6767C41.5216 32.1629 40.1304 33.8495 40.1304 35.8696C40.1304 38.2674 42.0804 40.2174 44.4783 40.2174C46.8761 40.2174 48.8261 38.2674 48.8261 35.8696C48.8261 33.8495 47.435 32.1629 45.5652 31.6767V20.5545C45.2109 20.6143 44.8489 20.6522 44.4783 20.6522C44.1076 20.6522 43.7457 20.6143 43.3913 20.5545ZM5.34783 31.5217C2.95 31.5217 1 33.4717 1 35.8696C1 38.2674 2.95 40.2174 5.34783 40.2174C6.61704 40.2174 7.75164 39.6628 8.54713 38.7929L18.5038 44.4845C18.6375 43.7422 18.8976 43.0441 19.2617 42.4125L9.56615 36.8737C9.64343 36.5497 9.69565 36.2169 9.69565 35.8696C9.69565 33.4717 7.74565 31.5217 5.34783 31.5217ZM38.3153 37.984L28.6664 43.4974C27.9149 42.1942 26.5228 41.3043 24.913 41.3043C22.5152 41.3043 20.5652 43.2543 20.5652 45.6522C20.5652 48.05 22.5152 50 24.913 50C27.3073 50 29.255 48.0557 29.2609 45.6628L39.3556 39.8926C38.9088 39.3252 38.5555 38.6819 38.3153 37.984Z" fill="#00ACC7"/>
</svg>