<svg width="50" height="50" viewBox="0 0 50 50" fill="none" xmlns="http://www.w3.org/2000/svg">
<g clip-path="url(#clip0_882_1241)">
<path d="M4.75814 0C2.13046 0 0 2.03605 0 4.5473V20.4629C0 22.9741 2.13046 25.0102 4.75814 25.0102H23.7721V32.3906C23.5392 32.129 23.297 31.8524 23.0868 31.6246C22.725 31.2327 22.4963 30.9714 22.1621 30.7098C20.2418 29.0557 17.2448 29.2098 15.5011 31.0229C13.7394 32.8531 14.0776 35.6019 15.7404 37.3309C20.33 42.5109 22.9821 45.6565 25.7446 47.589C28.515 49.527 31.383 50.0664 35.707 49.9937C35.8354 49.9914 36.9704 49.9856 38.0605 49.9803C39.1307 49.9752 40.0892 49.974 40.4442 49.9626C45.9851 49.9626 50 44.9133 50 39.7911V29.3643C50 27.177 48.1198 25.3898 45.8297 25.3898C44.9807 25.3898 44.2148 25.6499 43.5714 26.0715C42.8799 24.7792 41.4834 23.88 39.868 23.88C38.962 23.88 38.1268 24.1676 37.4402 24.6416C37.2142 24.2951 36.9336 23.9899 36.6108 23.7246C37.5043 22.8979 38.0651 21.7452 38.0651 20.4629V4.5473C38.0651 2.03605 35.9347 0 33.307 0H4.75814ZM9.60225 5.68413H11.8814L15.5383 19.326H13.0849L12.5203 17.0524H8.94243L8.4011 19.326H5.94768L9.60225 5.68413ZM16.6535 5.68413H17.843C20.8526 5.68413 23.7907 6.21048 23.7907 12.5051C23.7907 18.7997 20.8526 19.326 17.843 19.326H16.6535V5.68413ZM28.5489 5.68413C30.3177 5.68413 31.5024 6.72111 31.9223 7.33386L29.9312 8.5817C29.9241 8.57147 29.4577 7.95778 28.5489 7.95778C28.0136 7.97142 27.3593 8.17946 27.3593 9.0946C27.3593 9.76078 28.4835 10.8373 29.3876 11.7013C30.7306 12.9836 32.1175 14.3081 32.1175 15.9156C32.1175 16.0222 32.0925 16.11 32.0849 16.2109C31.9453 14.1415 30.1427 12.4851 27.9425 12.4851C27.6127 12.4851 27.296 12.5327 26.9876 12.6028C25.9143 11.534 24.9803 10.4102 24.9803 9.0946C24.9803 6.59245 27.1143 5.68413 28.5489 5.68413ZM19.0326 7.99108V17.0191C20.5385 16.8815 21.4116 16.1713 21.4116 12.5051C21.4116 8.83882 20.5385 8.12864 19.0326 7.99108ZM10.6919 9.6941L9.48376 14.7787H11.9558L10.6919 9.6941ZM27.9425 14.7587C28.9902 14.7587 29.7337 15.4704 29.7337 16.4618V31.8311C29.7319 31.9832 29.762 32.134 29.8223 32.2747C29.8825 32.4155 29.9717 32.5432 30.0846 32.6504C30.1119 32.6777 30.1405 32.7036 30.1705 32.7281H30.1729C30.2027 32.7518 30.2337 32.774 30.2658 32.7947H30.2681C30.3004 32.8155 30.3337 32.8348 30.368 32.8525H30.3703C30.4051 32.8704 30.4408 32.8868 30.4772 32.9013H30.4795C30.5153 32.9156 30.5517 32.9282 30.5887 32.9391H30.591C30.6285 32.9497 30.6665 32.9586 30.7049 32.9657H30.7072C30.7457 32.972 30.7845 32.9764 30.8234 32.979H30.8257C30.8651 32.9824 30.9046 32.9839 30.9442 32.9835C30.9838 32.9831 31.0233 32.9809 31.0627 32.9768C31.1017 32.972 31.1405 32.9653 31.1788 32.9568C31.2181 32.9491 31.2568 32.9395 31.295 32.928C31.3321 32.9164 31.3685 32.903 31.4042 32.888C31.4407 32.8727 31.4764 32.8557 31.5111 32.8369C31.5454 32.8178 31.5788 32.7971 31.611 32.7748C31.6439 32.7534 31.6757 32.7304 31.7062 32.7059C31.7355 32.6806 31.7634 32.654 31.7899 32.626H31.7922C32.0037 32.4111 32.1195 32.1261 32.1151 31.8311V26.7198C32.1151 25.7285 32.8587 25.019 33.9064 25.019C34.9541 25.019 35.6977 25.7285 35.6977 26.7198V27.8567V28.4229V31.8311C35.6955 31.9818 35.7246 32.1313 35.7834 32.2711C35.8421 32.4109 35.9294 32.5381 36.0401 32.6454C36.1508 32.7527 36.2827 32.8379 36.4281 32.896C36.5735 32.9542 36.7296 32.9841 36.8872 32.9841C37.0449 32.9841 37.2009 32.9542 37.3464 32.896C37.4918 32.8379 37.6237 32.7527 37.7344 32.6454C37.845 32.5381 37.9323 32.4109 37.9911 32.2711C38.0499 32.1313 38.079 31.9818 38.0768 31.8311V27.8567C38.0768 26.8653 38.8203 26.1536 39.868 26.1536C40.9158 26.1536 41.6593 26.8653 41.6593 27.8567V31.8311C41.6553 32.1187 41.7655 32.397 41.9677 32.61C42.1699 32.823 42.4491 32.9549 42.7489 32.979C42.7883 32.9824 42.8279 32.9839 42.8674 32.9835C43.1825 32.9788 43.4828 32.8548 43.7023 32.6387C43.9218 32.4227 44.0427 32.1322 44.0384 31.8311V29.5575C44.0384 28.5661 44.8774 27.6635 45.8297 27.6635C46.8774 27.6635 47.6209 28.373 47.6209 29.3643V39.7911C47.6209 43.7636 44.4196 47.6889 40.4442 47.6889C40.4295 47.6887 40.4148 47.6887 40.4001 47.6889C40.3214 47.6918 39.1351 47.7014 38.0466 47.7067C36.958 47.7119 35.9222 47.7155 35.6652 47.72C31.5411 47.7894 29.4937 47.3943 27.1502 45.755C24.8068 44.1157 22.1469 41.0463 17.5224 35.8278C17.5126 35.8157 17.5025 35.8039 17.4922 35.7922C16.5333 34.7951 16.3906 33.4575 17.2529 32.5616C18.1239 31.656 19.6394 31.5808 20.5822 32.404C20.6018 32.4209 20.6219 32.4372 20.6426 32.4528C20.5853 32.4091 20.9533 32.7493 21.3048 33.13C21.6562 33.5108 22.0789 33.9875 22.485 34.4511C23.2972 35.3784 24.0393 36.2519 24.0393 36.2519C24.1943 36.4336 24.4042 36.5651 24.6404 36.6284C24.8766 36.6917 25.1275 36.6836 25.3588 36.6053C25.59 36.5271 25.7903 36.3824 25.9321 36.1911C26.074 35.9998 26.1505 35.7713 26.1512 35.5369V16.4618C26.1512 15.4704 26.8947 14.7587 27.9425 14.7587Z" fill="#F8BE3D"/>
</g>
<defs>
<clipPath id="clip0_882_1241">
<rect width="50" height="50" fill="white"/>
</clipPath>
</defs>
</svg>
