<svg width="50" height="50" viewBox="0 0 50 50" fill="none" xmlns="http://www.w3.org/2000/svg">
<path d="M5.14131 2C4.04499 2 3.11329 2.90158 3.11329 4.01654V30.2786C3.11329 30.6537 3.21301 30.9948 3.37596 31.2931C3.30789 31.4115 3.24633 31.5387 3.20085 31.6837L3.19881 31.6857L0.256556 41.1058C0.09146 41.2931 0.00021798 41.5346 0 41.7848V44.9262C2.08503e-07 46.0356 0.891858 47 2.01987 47H47.9801C49.1081 47 50 46.0356 50 44.9262V41.7848C49.9998 41.5346 49.9085 41.2931 49.7434 41.1058L46.8012 31.6857C46.7555 31.5385 46.693 31.4108 46.624 31.291C46.7864 30.9931 46.8867 30.653 46.8867 30.2786V4.01654C46.8867 2.90158 45.955 2 44.8587 2H5.14131ZM5.18611 4.08199H44.8139V30.2786C44.8139 30.1767 44.732 30.2725 44.8078 30.2725H5.19221C5.26802 30.2725 5.18611 30.1766 5.18611 30.2786V4.08199ZM10.4048 32.3606H39.5952L40.6377 35.502H9.36227L10.4048 32.3606ZM20.8299 37.5963H29.1701L30.2126 39.6905H19.7874L20.8299 37.5963ZM2.04431 42.8115H47.9557V44.9262C47.9557 44.9429 47.9567 44.9441 47.9577 44.9466H2.04227C2.04332 44.9441 2.04431 44.9429 2.04431 44.9262V42.8115Z" fill="#5ACB9C"/>
<path d="M25.0004 5.76929C18.6382 5.76929 13.4619 10.9455 13.4619 17.3077C13.4619 23.67 18.6382 28.8462 25.0004 28.8462C31.3626 28.8462 36.5388 23.67 36.5388 17.3077C36.5388 10.9455 31.3626 5.76929 25.0004 5.76929ZM17.9765 12.7917C17.8816 12.7917 17.7848 12.7646 17.6995 12.7079C17.4693 12.5549 17.4061 12.2454 17.5581 12.0146C17.6007 11.9504 18.6216 10.4308 20.7251 9.63166C21.8188 9.21628 22.9761 9.2835 23.0258 9.28651C23.3017 9.30407 23.5114 9.54186 23.4944 9.81828C23.4778 10.0942 23.2495 10.2964 22.9631 10.2884C22.9536 10.2884 21.9668 10.2342 21.0818 10.5698C19.2939 11.2491 18.4039 12.5559 18.3954 12.569C18.298 12.7134 18.1385 12.7917 17.9765 12.7917ZM20.252 15.6542C19.6766 16.0059 19.4429 16.4996 19.4393 16.5066C19.3566 16.6942 19.173 16.8061 18.9798 16.8061C18.9126 16.8061 18.8439 16.7925 18.7781 16.7634C18.5248 16.6516 18.4099 16.3556 18.5213 16.1022C18.5494 16.039 19.2261 14.5486 21.0838 14.3313C22.8141 14.1251 23.7708 14.8792 23.8109 14.9113C24.0266 15.0858 24.0597 15.4019 23.8852 15.6166C23.7111 15.8318 23.3945 15.8654 23.1798 15.6909C23.1703 15.6833 23.0439 15.594 22.8156 15.5017C22.5628 15.9783 22.0651 16.3044 21.4887 16.3044C20.9755 16.3044 20.5235 16.0465 20.252 15.6542ZM25.0079 25.3355C22.9937 25.3365 21.4942 24.7169 21.4942 24.7169C21.4942 24.7169 21.9828 21.3312 24.9929 21.3221C28.0029 21.3131 28.5176 24.6959 28.5176 24.6959C28.5176 24.6959 27.0071 25.3345 25.0079 25.3355ZM31.7238 16.7634C31.6581 16.7925 31.5893 16.8061 31.5221 16.8061C31.329 16.8061 31.1454 16.6942 31.0626 16.5066C31.0505 16.48 30.8133 15.9999 30.2509 15.6552C29.979 16.047 29.527 16.3044 29.0138 16.3044C28.4378 16.3044 27.9432 15.9773 27.6903 15.5017C27.4586 15.5945 27.3291 15.6858 27.3176 15.6949C27.0999 15.8619 26.7853 15.8258 26.6158 15.6096C26.4457 15.3939 26.4783 15.0838 26.6915 14.9108C26.7311 14.8787 27.6793 14.1246 29.4191 14.3308C31.2758 14.5486 31.9531 16.0385 31.9806 16.1017C32.0925 16.3561 31.9771 16.6516 31.7238 16.7634ZM32.3002 12.7099C32.2149 12.7656 32.1191 12.7927 32.0243 12.7927C31.8612 12.7927 31.7012 12.7134 31.6049 12.5674C31.5969 12.5559 30.7074 11.2491 28.9189 10.5698C28.0265 10.2307 27.0482 10.2884 27.0387 10.2884C26.7643 10.2989 26.5235 10.0957 26.5059 9.81929C26.4883 9.54236 26.6985 9.30457 26.975 9.28651C27.0236 9.2825 28.182 9.21527 29.2756 9.63166C31.3786 10.4308 32.4 11.9504 32.4427 12.0146C32.5952 12.2459 32.5315 12.5569 32.3002 12.7099Z" fill="#5ACB9C"/>
</svg>