<svg width="50" height="50" viewBox="0 0 50 50" fill="none" xmlns="http://www.w3.org/2000/svg">
<path d="M25 0C23.0551 0 21.4638 1.34277 20.9868 3.125H8.15789C6.41859 3.125 5 4.52881 5 6.25V46.875C5 48.5962 6.41859 50 8.15789 50H41.8421C43.5814 50 45 48.5962 45 46.875V6.25C45 4.52881 43.5814 3.125 41.8421 3.125H33.4868C33.4663 3.125 33.4416 3.125 33.4211 3.125H29.0132C28.5362 1.34277 26.9449 0 25 0ZM25 2.08333C26.176 2.08333 27.1053 3.00293 27.1053 4.16667C27.1053 4.7404 27.5781 5.20833 28.1579 5.20833H32.3684V8.33333H17.6316V5.20833H21.8421C22.4219 5.20833 22.8947 4.7404 22.8947 4.16667C22.8947 3.00293 23.824 2.08333 25 2.08333ZM29.2105 17.7083C29.4778 17.7083 29.7615 17.7979 29.9671 18.0013L32.3684 20.4102L34.7697 18.0013C35.1809 17.5944 35.8717 17.5944 36.2829 18.0013C36.6941 18.4082 36.6941 19.0918 36.2829 19.4987L33.8487 21.875L36.2829 24.2513C36.6941 24.6582 36.6941 25.3418 36.2829 25.7487C36.0773 25.9521 35.7977 26.0417 35.5263 26.0417C35.2549 26.0417 34.9753 25.9521 34.7697 25.7487L32.3684 23.3398L29.9671 25.7487C29.7615 25.9521 29.4819 26.0417 29.2105 26.0417C28.9391 26.0417 28.6595 25.9521 28.4539 25.7487C28.0428 25.3418 28.0428 24.6582 28.4539 24.2513L30.8882 21.875L28.4539 19.4987C28.0428 19.0918 28.0428 18.4082 28.4539 18.0013C28.6595 17.7979 28.9433 17.7083 29.2105 17.7083ZM13.4211 20.8333H23.9474C24.5313 20.8333 25 21.3013 25 21.875C25 22.4487 24.5313 22.9167 23.9474 22.9167H13.4211C12.8372 22.9167 12.3684 22.4487 12.3684 21.875C12.3684 21.3013 12.8372 20.8333 13.4211 20.8333ZM29.2105 31.25C29.4778 31.25 29.7615 31.3395 29.9671 31.543L32.3684 33.9518L34.7697 31.543C35.1809 31.1361 35.8717 31.1361 36.2829 31.543C36.6941 31.9499 36.6941 32.6335 36.2829 33.0404L33.8487 35.4167L36.2829 37.793C36.6941 38.1999 36.6941 38.8835 36.2829 39.2904C36.0773 39.4938 35.7977 39.5833 35.5263 39.5833C35.2549 39.5833 34.9753 39.4938 34.7697 39.2904L32.3684 36.8815L29.9671 39.2904C29.7615 39.4938 29.4819 39.5833 29.2105 39.5833C28.9391 39.5833 28.6595 39.4938 28.4539 39.2904C28.0428 38.8835 28.0428 38.1999 28.4539 37.793L30.8882 35.4167L28.4539 33.0404C28.0428 32.6335 28.0428 31.9499 28.4539 31.543C28.6595 31.3395 28.9433 31.25 29.2105 31.25ZM13.4211 34.375H23.9474C24.5313 34.375 25 34.8429 25 35.4167C25 35.9904 24.5313 36.4583 23.9474 36.4583H13.4211C12.8372 36.4583 12.3684 35.9904 12.3684 35.4167C12.3684 34.8429 12.8372 34.375 13.4211 34.375Z" fill="#FA8F54"/>
</svg>